<svg width="55" height="55" viewBox="0 0 55 55" fill="none" xmlns="http://www.w3.org/2000/svg">
<path d="M21.1379 15.2346C20.9274 15.4446 20.7604 15.6941 20.6465 15.9688C20.5325 16.2435 20.4739 16.5379 20.4739 16.8353C20.4739 17.1326 20.5325 17.427 20.6465 17.7017C20.7604 17.9764 20.9274 18.2259 21.1379 18.4359L29.9472 27.2452L21.1379 36.0545C20.7133 36.4791 20.4748 37.0548 20.4748 37.6552C20.4748 38.2556 20.7133 38.8313 21.1379 39.2559C21.5624 39.6804 22.1382 39.9189 22.7385 39.9189C23.3389 39.9189 23.9147 39.6804 24.3392 39.2559L34.7605 28.8345C34.971 28.6245 35.138 28.375 35.2519 28.1003C35.3658 27.8257 35.4245 27.5312 35.4245 27.2339C35.4245 26.9365 35.3658 26.6421 35.2519 26.3674C35.138 26.0928 34.971 25.8433 34.7605 25.6332L24.3392 15.2119C23.4764 14.3491 22.0233 14.3491 21.1379 15.2346Z" fill="#EEEDF0"/>
</svg>
