<svg width="400" height="400" viewBox="0 0 400 400" fill="none" xmlns="http://www.w3.org/2000/svg">
<g clip-path="url(#clip0_11_117)">
<path d="M400 0H0V400H400V0Z" fill="#CB69C1"/>
<g filter="url(#filter0_f_11_117)">
<path d="M277 515C380.277 515 464 431.277 464 328C464 224.723 380.277 141 277 141C173.723 141 90 224.723 90 328C90 431.277 173.723 515 277 515Z" fill="#6C72CB"/>
<path d="M330 320C433.277 320 517 236.277 517 133C517 29.7228 433.277 -54 330 -54C226.723 -54 143 29.7228 143 133C143 236.277 226.723 320 330 320Z" fill="#CB69C1"/>
<path d="M99 252C202.277 252 286 168.277 286 65C286 -38.2772 202.277 -122 99 -122C-4.27724 -122 -88 -38.2772 -88 65C-88 168.277 -4.27724 252 99 252Z" fill="#6C72CB"/>
<path d="M20 384C123.277 384 207 300.277 207 197C207 93.7228 123.277 10 20 10C-83.2772 10 -167 93.7228 -167 197C-167 300.277 -83.2772 384 20 384Z" fill="#6C72CB"/>
<path d="M194 403C297.277 403 381 319.277 381 216C381 112.723 297.277 29 194 29C90.7228 29 7 112.723 7 216C7 319.277 90.7228 403 194 403Z" fill="#CB69C1"/>
<path d="M83 494C186.277 494 270 410.277 270 307C270 203.723 186.277 120 83 120C-20.2772 120 -104 203.723 -104 307C-104 410.277 -20.2772 494 83 494Z" fill="#6C72CB"/>
</g>
</g>
<defs>
<filter id="filter0_f_11_117" x="-335" y="-290" width="1020" height="973" filterUnits="userSpaceOnUse" color-interpolation-filters="sRGB">
<feFlood flood-opacity="0" result="BackgroundImageFix"/>
<feBlend mode="normal" in="SourceGraphic" in2="BackgroundImageFix" result="shape"/>
<feGaussianBlur stdDeviation="84" result="effect1_foregroundBlur_11_117"/>
</filter>
<clipPath id="clip0_11_117">
<rect width="400" height="400" fill="white"/>
</clipPath>
</defs>
</svg>
