<svg width="1440" height="692" viewBox="0 0 1440 692" fill="none" xmlns="http://www.w3.org/2000/svg">
<path d="M1440 0H0V692H1440V0Z" fill="#6C72CB"/>
<path d="M0 510.927L206.4 423.273L411.2 475.173L617.6 445.187L822.4 489.013L1028.8 447.493L1233.6 505.16L1440 431.347V693.153H1233.6H1028.8H822.4H617.6H411.2H206.4H0V510.927Z" fill="#6C72CB"/>
<path d="M0 384.936L206.4 456.367L411.2 421.445L617.6 480.178L822.4 413.509L1028.8 481.765L1233.6 473.828L1440 399.222V692.885H1233.6H1028.8H822.4H617.6H411.2H206.4H0V384.936Z" fill="#8670CC"/>
<path d="M0 486.712L206.4 490.702L411.2 481.391L617.6 514.645L822.4 484.052L1028.8 551.889L1233.6 541.248L1440 527.947V692.885H1233.6H1028.8H822.4H617.6H411.2H206.4H0V486.712Z" fill="#9F6ECB"/>
<path d="M0 537.006L206.4 598.5L411.2 599.93L617.6 607.08L822.4 579.909L1028.8 532.716L1233.6 557.027L1440 555.597V692.885H1233.6H1028.8H822.4H617.6H411.2H206.4H0V537.006Z" fill="#B66CC7"/>
<path d="M0 558.727L206.4 576.226L411.2 566.505L617.6 587.892L822.4 632.611L1028.8 582.059L1233.6 554.839L1440 607.335V692.885H1233.6H1028.8H822.4H617.6H411.2H206.4H0V558.727Z" fill="#CB69C1"/>
</svg>
