<svg width="1440" height="338" viewBox="0 0 1440 338" fill="none" xmlns="http://www.w3.org/2000/svg">
<path d="M0 42.47L34.4 51.649C68.8 60.691 137.6 79.049 206.08 92.201C274.72 105.49 342.88 113.71 411.52 113.299C480 112.751 548.8 103.709 617.28 104.531C685.92 105.49 754.08 116.45 822.72 121.245C891.2 126.04 960 124.67 1028.48 116.724C1097.12 108.641 1165.28 94.119 1233.92 73.569C1302.4 53.019 1371.2 26.441 1405.6 13.289L1440 0V337.02H1405.6C1371.2 337.02 1302.4 337.02 1233.92 337.02C1165.28 337.02 1097.12 337.02 1028.48 337.02C960 337.02 891.2 337.02 822.72 337.02C754.08 337.02 685.92 337.02 617.28 337.02C548.8 337.02 480 337.02 411.52 337.02C342.88 337.02 274.72 337.02 206.08 337.02C137.6 337.02 68.8 337.02 34.4 337.02H0V42.47Z" fill="#CB69C1"/>
<path d="M0 58.9099L34.4 61.6499C68.8 64.3899 137.6 69.8699 206.08 68.7739C274.72 67.5409 342.88 59.8689 411.52 61.2389C480 62.6089 548.8 73.0209 617.28 87.9539C685.92 102.75 754.08 121.93 822.72 119.601C891.2 117.409 960 93.5709 1028.48 90.6939C1097.12 87.6799 1165.28 105.49 1233.92 110.97C1302.4 116.45 1371.2 109.6 1405.6 106.175L1440 102.75V337.02H1405.6C1371.2 337.02 1302.4 337.02 1233.92 337.02C1165.28 337.02 1097.12 337.02 1028.48 337.02C960 337.02 891.2 337.02 822.72 337.02C754.08 337.02 685.92 337.02 617.28 337.02C548.8 337.02 480 337.02 411.52 337.02C342.88 337.02 274.72 337.02 206.08 337.02C137.6 337.02 68.8 337.02 34.4 337.02H0V58.9099Z" fill="#B66CC7"/>
<path d="M0 153.44L34.4 161.66C68.8 169.88 137.6 186.32 206.08 183.169C274.72 179.881 342.88 157.139 411.52 158.92C480 160.701 548.8 187.279 617.28 187.279C685.92 187.279 754.08 160.701 822.72 144.946C891.2 129.191 960 124.259 1028.48 136.589C1097.12 148.919 1165.28 178.511 1233.92 190.704C1302.4 202.76 1371.2 197.28 1405.6 194.54L1440 191.8V337.02H1405.6C1371.2 337.02 1302.4 337.02 1233.92 337.02C1165.28 337.02 1097.12 337.02 1028.48 337.02C960 337.02 891.2 337.02 822.72 337.02C754.08 337.02 685.92 337.02 617.28 337.02C548.8 337.02 480 337.02 411.52 337.02C342.88 337.02 274.72 337.02 206.08 337.02C137.6 337.02 68.8 337.02 34.4 337.02H0V153.44Z" fill="#9F6ECB"/>
<path d="M0 238.38L34.4 232.489C68.8 226.461 137.6 214.679 206.08 205.5C274.72 196.321 342.88 190.019 411.52 197.28C480 204.541 548.8 225.639 617.28 230.571C685.92 235.64 754.08 224.68 822.72 222.899C891.2 220.981 960 228.379 1028.48 222.214C1097.12 216.049 1165.28 196.321 1233.92 191.526C1302.4 186.731 1371.2 196.869 1405.6 201.801L1440 206.87V337.02H1405.6C1371.2 337.02 1302.4 337.02 1233.92 337.02C1165.28 337.02 1097.12 337.02 1028.48 337.02C960 337.02 891.2 337.02 822.72 337.02C754.08 337.02 685.92 337.02 617.28 337.02C548.8 337.02 480 337.02 411.52 337.02C342.88 337.02 274.72 337.02 206.08 337.02C137.6 337.02 68.8 337.02 34.4 337.02H0V238.38Z" fill="#8670CC"/>
<path d="M0 279.48L34.4 282.22C68.8 284.96 137.6 290.44 206.08 285.919C274.72 281.261 342.88 266.739 411.52 258.245C480 249.751 548.8 247.559 617.28 247.97C685.92 248.381 754.08 251.669 822.72 251.121C891.2 250.71 960 246.6 1028.48 253.039C1097.12 259.341 1165.28 276.329 1233.92 277.836C1302.4 279.48 1371.2 265.78 1405.6 258.93L1440 252.08V337.02H1405.6C1371.2 337.02 1302.4 337.02 1233.92 337.02C1165.28 337.02 1097.12 337.02 1028.48 337.02C960 337.02 891.2 337.02 822.72 337.02C754.08 337.02 685.92 337.02 617.28 337.02C548.8 337.02 480 337.02 411.52 337.02C342.88 337.02 274.72 337.02 206.08 337.02C137.6 337.02 68.8 337.02 34.4 337.02H0V279.48Z" fill="#6C72CB"/>
</svg>
